<svg width="107" height="100" viewBox="0 0 107 100" fill="none" xmlns="http://www.w3.org/2000/svg">
<rect width="106" height="93" fill="#D55660"/>
<rect x="72.5344" y="72.9912" width="45.2821" height="17.5286" transform="rotate(-131.761 72.5344 72.9912)" fill="white"/>
<path d="M72.5343 72.9911L57.2169 45.9664L97.6581 91.2601L72.5343 72.9911Z" fill="white"/>
<rect x="97.3229" y="91.9812" width="30.675" height="11.6857" transform="rotate(-131.761 97.3229 91.9812)" fill="white"/>
<path d="M42.862 39.7585L28.859 17.4957L63.4025 56.184L42.862 39.7585Z" fill="white"/>
<rect x="46.6172" y="37.3847" width="30.675" height="13.1464" transform="rotate(-131.761 46.6172 37.3847)" fill="white"/>
<path d="M27.4328 83.8874L55.1161 52.3863L61.8563 59.9353L27.4328 83.8874Z" fill="white"/>
<rect x="41.403" y="92.9543" width="32.1357" height="8.76428" transform="rotate(-131.761 41.403 92.9543)" fill="white"/>
<rect x="60.86" y="59.916" width="10.225" height="30.675" transform="rotate(-131.761 60.86 59.916)" fill="white"/>
</svg>
